<?xml version="1.0" encoding="UTF-8"?>
<svg width="1200pt" height="1200pt" version="1.1" viewBox="0 0 1200 1200" xmlns="http://www.w3.org/2000/svg">
 <g fill="#682079">
  <path d="m602.82 536.71c66.672 0 137.54-21.434 137.54-61.152v-74.965c0-2.4844-0.27734-4.8828-0.81641-7.2344-1.0781-4.668-3.168-9.0586-6.168-13.152-1.5-2.0508-3.2148-4.0078-5.1367-5.9141-1.3789-1.3555-2.8555-2.6641-4.4297-3.9609-0.61328-0.49219-1.2852-0.94922-1.8945-1.4141-1.0078-0.76953-2.0156-1.5352-3.0977-2.2695-0.86328-0.58984-1.7773-1.1523-2.6758-1.7266-0.91016-0.57422-1.8242-1.1523-2.7852-1.7148-1.0781-0.63672-2.2305-1.2461-3.3477-1.8477-0.81641-0.44531-1.668-0.88672-2.5078-1.3203-1.3086-0.66016-2.6523-1.2969-4.0078-1.9219-0.73047-0.33594-1.4766-0.66016-2.207-0.98438-1.5469-0.67188-3.1211-1.332-4.7148-1.9688-0.61328-0.23828-1.1992-0.45703-1.7773-0.69531-1.7773-0.67188-3.5898-1.3438-5.4375-1.9805-0.42188-0.14453-0.83984-0.27734-1.2461-0.42188-2.0391-0.68359-4.1289-1.3438-6.2383-1.9805-13.078-3.8867-27.516-6.7422-42.445-8.5078-6.0469-0.70703-12.109-1.2461-18.238-1.6094h-0.011718c-6.1211-0.35938-12.254-0.53906-18.359-0.53906h-0.011718c-58.332 0-119.88 16.414-134.35 47.137-2.0625 4.3789-3.168 9.0586-3.168 14.027v74.961c0 39.723 70.859 61.156 137.53 61.156zm114.23-61.152c0 15.422-44.484 37.824-114.2 37.824v-51.637c43.117-0.011719 87.887-9.0234 114.2-26.113zm-227.93-77.93c0.30078-0.89844 0.76953-1.8242 1.332-2.7461 0.20312-0.32422 0.48047-0.64844 0.70703-0.97266 0.43359-0.61328 0.86328-1.2227 1.4023-1.8359 0.34766-0.39453 0.76953-0.80469 1.1758-1.1992 0.51562-0.53906 1.0664-1.0781 1.6914-1.6211 0.50391-0.45703 1.0664-0.89844 1.6445-1.3438 0.60156-0.48047 1.2227-0.96094 1.8828-1.4414 0.69531-0.50391 1.4297-0.99609 2.1953-1.5 0.63672-0.40625 1.2852-0.81641 1.9688-1.2344 0.88672-0.53906 1.8242-1.0938 2.8086-1.6328 0.61328-0.33594 1.2461-0.64844 1.8711-0.98438 1.1758-0.60156 2.3398-1.1992 3.6133-1.7773 0.44531-0.21484 0.91016-0.40625 1.3672-0.61328 12.625-5.6758 29.82-10.57 50.746-13.402 0.070312-0.011718 0.14453-0.023437 0.21484-0.023437 3-0.40625 6.0703-0.75781 9.2266-1.0664 0.13281-0.011719 0.25391-0.023438 0.35938-0.035157 3.168-0.3125 6.3945-0.57422 9.707-0.79297h0.035156c6.3359-0.40625 12.898-0.66016 19.754-0.66016 7.1992 0 14.137 0.23828 20.762 0.69531 11.102 0.74219 21.371 2.0898 30.742 3.8398 0.66016 0.12109 1.3086 0.23828 1.9453 0.37109 7.4297 1.4531 14.258 3.168 20.461 5.0625 0.61328 0.19141 1.2461 0.39453 1.8711 0.58984 3 0.96094 5.8789 1.957 8.5781 3 0.023437 0.011719 0.070312 0.023438 0.12109 0.046875 2.5781 1.0078 4.9688 2.0625 7.2461 3.1445 0.5625 0.26562 1.1289 0.52734 1.668 0.79297 2.2305 1.0938 4.332 2.207 6.2148 3.3242 0.046875 0.035156 0.097656 0.070313 0.16797 0.10938 1.8242 1.0938 3.4219 2.207 4.8945 3.3125 0.39453 0.30078 0.79297 0.58984 1.1758 0.88672 1.4297 1.1523 2.7461 2.293 3.8164 3.4453 3 3.1914 4.5703 6.3242 4.5703 9.2148 0 15.434-44.508 37.836-114.21 37.836-5.1602 0-10.117-0.15625-14.988-0.39453-1.4531-0.058593-2.8672-0.16797-4.2969-0.25391-3.4805-0.21484-6.8984-0.49219-10.234-0.80469-1.3789-0.14453-2.7461-0.26563-4.1055-0.42188-3.8984-0.44531-7.7148-0.96094-11.363-1.5234-0.49219-0.085937-1.0195-0.14453-1.5-0.21484-4.3086-0.70703-8.3984-1.5117-12.348-2.3867-0.5625-0.12109-1.1055-0.26562-1.668-0.39453-3.3828-0.78125-6.6367-1.6094-9.707-2.4961-0.61328-0.17969-1.2344-0.34766-1.8242-0.52734-16.523-4.8945-28.668-11.102-35.555-17.281-0.26562-0.23828-0.52734-0.48047-0.76953-0.71875-0.61328-0.58984-1.2227-1.1758-1.7539-1.7539-0.69531-0.76953-1.3203-1.5469-1.8359-2.3164-0.23828-0.33594-0.39453-0.67188-0.58984-0.99609-0.34766-0.625-0.67188-1.2461-0.91016-1.8594-0.12109-0.28906-0.23828-0.57422-0.32422-0.86328-0.25391-0.88672-0.45703-1.7656-0.45703-2.6055-0.007812-0.97266 0.17188-1.9688 0.50781-2.9766z"/>
  <path d="m1199.5 369.15c-0.097656-0.32422-0.23828-0.63672-0.37109-0.94922-0.25391-0.68359-0.5625-1.3438-0.9375-1.957-0.21484-0.33594-0.42188-0.63672-0.66016-0.94922-0.42188-0.5625-0.9375-1.0781-1.4766-1.5703-0.25391-0.25391-0.49219-0.49219-0.76953-0.70703-0.12109-0.085937-0.21484-0.20312-0.32422-0.28906-0.74219-0.52734-1.5703-0.9375-2.4102-1.2617-0.023437 0-0.023437-0.023438-0.046875-0.023438l-0.023437-0.011718c-0.023438 0-0.023438 0-0.046875-0.011719l-159.32-60.996v-10.152c0-2.4844-0.27734-4.8945-0.79297-7.2344-1.0781-4.6797-3.1914-9.0586-6.1914-13.164-1.4766-2.0391-3.2148-4.0078-5.1367-5.9141-1.3555-1.3555-2.8555-2.6641-4.4297-3.9609-0.58984-0.49219-1.2617-0.94922-1.8945-1.4141-1.0078-0.76953-2.0156-1.5352-3.0977-2.2695-0.86328-0.58984-1.7773-1.1523-2.6758-1.7266-0.91016-0.57422-1.8008-1.1523-2.7852-1.7148-1.0781-0.63672-2.207-1.2461-3.3477-1.8594-0.81641-0.44531-1.6445-0.88672-2.5078-1.3203-1.2852-0.66016-2.6523-1.2969-4.0078-1.9219-0.73047-0.33594-1.4766-0.67188-2.207-0.99609-1.5469-0.67188-3.0977-1.332-4.7148-1.9688-0.58984-0.23828-1.1992-0.45703-1.7773-0.69531-1.7773-0.67188-3.5898-1.3438-5.4375-1.9805-0.39453-0.14453-0.81641-0.27734-1.2461-0.42188-2.0391-0.68359-4.1289-1.3555-6.2383-1.9922-13.078-3.8867-27.492-6.7422-42.445-8.5078-6.0234-0.70703-12.121-1.2461-18.238-1.6094-6.1445-0.35938-12.254-0.53906-18.371-0.53906h-0.023437c-13.848 0-27.91 0.96094-41.461 2.7852l-116.55-44.617-0.003906-10.102c0-2.4844-0.27734-4.8945-0.81641-7.2344-1.0781-4.6797-3.168-9.0586-6.168-13.152-1.5-2.0508-3.2148-4.0078-5.1367-5.9141-1.3555-1.3555-2.8555-2.6641-4.4297-3.9609-0.61328-0.49219-1.2852-0.94922-1.8945-1.4141-1.0078-0.76953-2.0156-1.5352-3.0977-2.2695-0.86328-0.58984-1.7773-1.1523-2.6758-1.7266-0.91016-0.57422-1.8242-1.1523-2.7852-1.7148-1.0781-0.63672-2.207-1.2461-3.3477-1.8477-0.81641-0.44531-1.668-0.88672-2.5078-1.3203-1.3086-0.66016-2.6523-1.2969-4.0078-1.9219-0.73047-0.33594-1.4766-0.67188-2.207-0.98438-1.5469-0.67187-3.1211-1.332-4.7148-1.9688-0.58984-0.23828-1.1992-0.45703-1.7773-0.69531-1.7773-0.67188-3.5898-1.3438-5.4375-1.9805-0.42188-0.14453-0.81641-0.27734-1.2461-0.42188-2.0391-0.68359-4.1289-1.3438-6.2383-1.9805-13.078-3.8867-27.516-6.7422-42.445-8.5078-6.0469-0.70703-12.109-1.2461-18.238-1.6094h-0.011718c-6.1055-0.35938-12.25-0.53906-18.359-0.53906h-0.011719c-58.332 0-119.88 16.414-134.35 47.137-2.0625 4.3789-3.1797 9.0586-3.1797 14.027v7.2109l-117.45 44.258c0.69531 0.085938 1.3672 0.20312 2.0508 0.30078-1.0781-0.14453-2.1484-0.32422-3.2383-0.45703-6.0234-0.70703-12.109-1.2461-18.238-1.6094h-0.011718c-6.1211-0.35938-12.254-0.53906-18.359-0.53906h-0.011718c-58.32 0-119.88 16.414-134.35 47.125-2.0625 4.3906-3.168 9.0703-3.168 14.027v7.2109l-162.13 61.078c-0.88672 0.32422-1.7383 0.76953-2.5312 1.3086-0.12109 0.085938-0.20312 0.19141-0.3125 0.27734-0.28906 0.21484-0.51562 0.45703-0.78125 0.70703-0.53906 0.48047-1.043 0.99609-1.4766 1.5586-0.23828 0.30078-0.45703 0.61328-0.66016 0.9375-0.38281 0.625-0.68359 1.2617-0.94922 1.9453-0.13281 0.3125-0.27734 0.63672-0.37109 0.97266-0.28906 0.98438-0.46875 2.0039-0.48047 3.0586 0 0.046875-0.011719 0.085937-0.011719 0.12109v0.011718 0.011719 479.44c0 4.8242 2.9883 9.168 7.4883 10.883l591.16 226.29c0.097657 0.046875 0.21484 0.023437 0.32422 0.070312 1.2461 0.42188 2.5312 0.70703 3.8398 0.70703 1.2852 0 2.5547-0.25391 3.793-0.68359 0.097656-0.046875 0.21484-0.023438 0.30078-0.070313l585.53-220.63c4.582-1.6797 7.582-6.0234 7.582-10.871v-479.45c0-1.0898-0.19141-2.1445-0.46875-3.168zm-343.01-114.16c3-0.39453 6.0703-0.75781 9.2148-1.0664 0.14453-0.011719 0.25391-0.023437 0.37109-0.035156 3.168-0.3125 6.3945-0.57422 9.707-0.78125h0.023438c6.3477-0.40625 12.91-0.67188 19.754-0.67188 7.1992 0 14.137 0.23828 20.762 0.69531 11.113 0.74219 21.348 2.0898 30.742 3.8398 0.66016 0.12109 1.2852 0.23828 1.9219 0.37109 7.4297 1.4531 14.258 3.168 20.461 5.0625 0.63672 0.19141 1.2461 0.39453 1.8711 0.58984 3 0.97266 5.9023 1.9688 8.5781 3 0.046874 0.011718 0.070312 0.023437 0.12109 0.046875 2.5781 1.0078 4.9688 2.0742 7.2617 3.1445 0.5625 0.26562 1.1055 0.52734 1.6445 0.79297 2.2305 1.0938 4.332 2.1953 6.2383 3.3242 0.046876 0.035156 0.097657 0.070312 0.14453 0.10937 1.8242 1.0938 3.4219 2.207 4.9219 3.3125 0.39453 0.30078 0.76953 0.58984 1.1523 0.88672 1.4297 1.1523 2.7617 2.293 3.8398 3.4453 2.9766 3.1914 4.5469 6.3242 4.5469 9.2266 0 15.434-44.484 37.836-114.21 37.836-5.1602 0-10.129-0.15625-14.977-0.39453-1.4766-0.058593-2.8789-0.16797-4.3086-0.25391-3.4922-0.21484-6.9102-0.49219-10.246-0.80469-1.3555-0.13281-2.7461-0.26562-4.0781-0.42188-3.9102-0.44531-7.7148-0.96094-11.387-1.5352-0.46875-0.085938-1.0078-0.13281-1.4766-0.21484-4.3086-0.70703-8.4102-1.5117-12.348-2.3867-0.5625-0.12109-1.1289-0.26562-1.6914-0.39453-3.3711-0.78125-6.6133-1.6211-9.707-2.4961-0.61328-0.17969-1.2227-0.35938-1.8008-0.52734-16.523-4.8945-28.691-11.102-35.578-17.281-0.25391-0.23828-0.51562-0.48047-0.74219-0.71875-0.63672-0.58984-1.2461-1.1758-1.7539-1.7539-0.68359-0.76953-1.3086-1.5469-1.8242-2.3164-0.23828-0.33594-0.39453-0.67188-0.58984-0.99609-0.34766-0.625-0.68359-1.2461-0.91016-1.8594-0.14453-0.28906-0.23828-0.57422-0.32422-0.86328-0.25391-0.88672-0.44531-1.7539-0.44531-2.6055 0-0.97266 0.19141-1.957 0.51562-2.9648 0.30078-0.89844 0.76953-1.8242 1.332-2.7461 0.19141-0.32422 0.46875-0.64844 0.70703-0.97266 0.42188-0.61328 0.86328-1.2227 1.4023-1.8359 0.34766-0.40625 0.76953-0.80469 1.1758-1.2109 0.51562-0.53906 1.0781-1.0781 1.6914-1.6211 0.51562-0.44531 1.0781-0.89844 1.6445-1.3438 0.61328-0.48047 1.2227-0.96094 1.8711-1.4414 0.70703-0.50391 1.4297-0.99609 2.207-1.5 0.61328-0.40625 1.2852-0.81641 1.9688-1.2344 0.88672-0.53906 1.8242-1.0938 2.8086-1.6328 0.61328-0.32422 1.2461-0.64844 1.8711-0.98438 1.1523-0.60156 2.3164-1.1992 3.6133-1.7891 0.44531-0.20312 0.91016-0.40625 1.3789-0.61328 12.613-5.6758 29.809-10.57 50.746-13.391 0.046875-0.007813 0.12109-0.023437 0.19141-0.023437zm153.28 70.32v39.926c0 15.422-44.484 37.836-114.19 37.836v-51.637c43.113-0.023438 87.875-9.0352 114.19-26.125zm-523.49-151.15c0.30078-0.89844 0.76953-1.8242 1.332-2.7461 0.20312-0.32422 0.48047-0.64844 0.70703-0.97266 0.43359-0.61328 0.86328-1.2227 1.4023-1.8359 0.34766-0.39453 0.76953-0.80469 1.1641-1.1992 0.52734-0.53906 1.0781-1.0781 1.6914-1.6211 0.51562-0.45703 1.0781-0.89844 1.6445-1.3438 0.61328-0.48047 1.2266-0.96094 1.8867-1.4375 0.69531-0.50391 1.4297-0.99609 2.1953-1.5 0.63672-0.40625 1.2852-0.81641 1.9688-1.2227 0.89844-0.53906 1.8242-1.0938 2.8086-1.6328 0.61328-0.32422 1.2461-0.64844 1.8711-0.98438 1.1758-0.60156 2.3398-1.1992 3.6133-1.7773 0.44531-0.21484 0.91016-0.40625 1.3789-0.61328 12.613-5.6758 29.809-10.57 50.746-13.402 0.070313-0.011719 0.14453-0.023438 0.21484-0.023438 3-0.40625 6.0703-0.75781 9.2266-1.0664 0.13281-0.011719 0.25391-0.023438 0.35938-0.035156 3.168-0.3125 6.3945-0.57422 9.707-0.79297h0.035156c6.332-0.41016 12.895-0.66406 19.734-0.66406 7.1992 0 14.137 0.23828 20.762 0.68359 11.102 0.74219 21.371 2.0898 30.742 3.8398 0.66016 0.12109 1.3086 0.23828 1.9453 0.37109 7.4297 1.4414 14.258 3.168 20.461 5.0625 0.61328 0.19141 1.2461 0.39453 1.8711 0.58984 3 0.96094 5.8789 1.957 8.5781 3 0.023437 0.011718 0.070313 0.035156 0.12109 0.046874 2.5781 1.0078 4.9688 2.0625 7.2617 3.1445 0.5625 0.26562 1.1055 0.52734 1.6445 0.79297 2.2305 1.0938 4.332 2.207 6.2148 3.3242 0.046876 0.035157 0.097657 0.070313 0.16797 0.10938 1.8242 1.0938 3.4219 2.207 4.8945 3.3125 0.39453 0.30078 0.79297 0.58984 1.1758 0.88672 1.4297 1.1523 2.7617 2.293 3.8164 3.4453 3 3.1914 4.5703 6.3242 4.5703 9.2148 0 15.434-44.484 37.836-114.21 37.836-5.1602 0-10.117-0.15625-14.988-0.39453-1.4531-0.058594-2.8672-0.16797-4.2969-0.25391-3.4805-0.21484-6.8984-0.49219-10.234-0.80469-1.3789-0.14453-2.7461-0.26562-4.1055-0.42188-3.8984-0.44531-7.7031-0.96094-11.363-1.5352-0.49219-0.070312-1.0078-0.13281-1.5-0.21484-4.3086-0.70703-8.3984-1.5117-12.348-2.3867-0.5625-0.12109-1.1055-0.26562-1.668-0.39453-3.3828-0.78125-6.6367-1.6094-9.707-2.4961-0.61328-0.17969-1.2227-0.34766-1.8242-0.52734-16.523-4.8945-28.668-11.102-35.555-17.281-0.26562-0.23828-0.51562-0.48047-0.75781-0.71875-0.61328-0.58984-1.2344-1.1758-1.7539-1.7539-0.69531-0.76953-1.3203-1.5469-1.8359-2.3164-0.22656-0.33594-0.39453-0.67188-0.58984-0.99609-0.34766-0.625-0.67188-1.2461-0.91016-1.8594-0.12109-0.28906-0.23828-0.57422-0.32422-0.86328-0.25391-0.88672-0.45703-1.7656-0.45703-2.6055 0.003906-0.96094 0.18359-1.9531 0.51953-2.9648zm227.93 38.004v39.926c0 15.422-44.484 37.824-114.2 37.824v-51.637c43.117-0.011719 87.875-9.0234 114.2-26.113zm-356.41 18.301c-0.63672-0.10938-1.2461-0.23828-1.8711-0.33594 0.63672 0.10938 1.2461 0.24219 1.8711 0.33594zm9.5039 1.7773c-0.085937-0.023438-0.16797-0.046876-0.25391-0.058594 0.085937 0.011718 0.16797 0.035156 0.25391 0.058594zm-173.79 52.234c0.30078-0.89844 0.76953-1.8242 1.332-2.7461 0.20312-0.3125 0.48047-0.63672 0.70703-0.96094 0.43359-0.61328 0.86328-1.2227 1.4023-1.8359 0.34766-0.39453 0.76953-0.80469 1.1641-1.2109 0.52734-0.52734 1.0664-1.0664 1.6914-1.6094 0.50391-0.45703 1.0664-0.89844 1.6445-1.3438 0.60156-0.49219 1.2227-0.96094 1.8828-1.4414 0.69531-0.50391 1.4297-0.99609 2.1953-1.5 0.625-0.40625 1.2969-0.81641 1.9688-1.2227 0.89844-0.55078 1.8242-1.0938 2.8203-1.6328 0.60156-0.32422 1.2461-0.64844 1.8711-0.98438 1.1641-0.60156 2.3398-1.1992 3.6133-1.7773 0.44531-0.21484 0.91016-0.40625 1.3672-0.61328 12.625-5.6875 29.82-10.57 50.746-13.402 0.070313-0.011718 0.14453-0.023437 0.21484-0.023437 3-0.40625 6.0703-0.76953 9.2266-1.0664 0.13281-0.011719 0.25391-0.023438 0.37109-0.035157 3.168-0.3125 6.3945-0.57422 9.6953-0.78125h0.035156c6.3477-0.40625 12.898-0.67187 19.754-0.67187 7.1992 0 14.125 0.23828 20.762 0.69531 11.113 0.74219 21.371 2.0898 30.742 3.8398 0.66016 0.12109 1.2969 0.25391 1.9453 0.37109 7.4297 1.4414 14.258 3.168 20.449 5.0625 0.625 0.19141 1.2461 0.39453 1.8828 0.58984 3 0.96094 5.8906 1.957 8.5781 3 0.035156 0.011719 0.058594 0.035157 0.10938 0.046875 2.5938 1.0078 4.9805 2.0742 7.2617 3.1445 0.55078 0.26562 1.1055 0.52734 1.6562 0.79297 2.2188 1.0938 4.332 2.207 6.2148 3.3242 0.046876 0.035156 0.097657 0.070313 0.15625 0.10938 1.8125 1.0938 3.4219 2.1953 4.9062 3.3125 0.39453 0.30078 0.78125 0.58984 1.1523 0.88672 1.4297 1.1523 2.7617 2.293 3.8398 3.4336 2.9883 3.1914 4.5586 6.3359 4.5586 9.2266 0 15.434-44.496 37.836-114.21 37.836-5.1602 0-10.117-0.15625-14.988-0.39453-1.4648-0.058593-2.8672-0.16797-4.2969-0.25391-3.4922-0.21484-6.9102-0.49219-10.234-0.81641-1.3672-0.13281-2.7461-0.26562-4.0938-0.42188-3.8984-0.44531-7.7031-0.96094-11.375-1.5352-0.49219-0.070313-1.0078-0.13281-1.5-0.21484-4.3086-0.70703-8.3984-1.5-12.348-2.3867-0.57422-0.12109-1.1055-0.26562-1.668-0.39453-3.3828-0.78125-6.625-1.6094-9.707-2.4961-0.61328-0.17969-1.2227-0.34766-1.8125-0.52734-16.523-4.8945-28.68-11.102-35.566-17.281-0.26562-0.23828-0.51562-0.48047-0.75781-0.71875-0.625-0.58984-1.2344-1.1758-1.7539-1.7656-0.69531-0.76953-1.3203-1.5469-1.8359-2.3047-0.23828-0.33594-0.39453-0.67188-0.58984-1.0078-0.34766-0.625-0.67188-1.2461-0.91016-1.8594-0.12109-0.28906-0.23828-0.57422-0.32422-0.86328-0.25391-0.88672-0.45703-1.7539-0.45703-2.6055 0-0.96094 0.17969-1.957 0.51562-2.9648zm227.93 38.004v39.926c0 15.422-44.484 37.824-114.2 37.824v-51.637c43.113 0 87.863-9.0117 114.2-26.113zm-251.76-2.9258v42.852c0 39.719 70.859 61.152 137.52 61.152 66.684 0 137.54-21.445 137.54-61.152l0.003906-74.965c0-2.4844-0.27734-4.8945-0.80469-7.2344-1.0781-4.6797-3.1797-9.0586-6.168-13.152-1.5-2.0508-3.2148-4.0195-5.1367-5.9297-1.3672-1.3555-2.8555-2.6641-4.4414-3.9492-0.58984-0.49219-1.2734-0.94922-1.8945-1.4297-1.0078-0.76953-2.0039-1.5234-3.0859-2.2578-0.86328-0.60156-1.7773-1.1641-2.6875-1.7266-0.91016-0.57422-1.8125-1.1523-2.7734-1.7148-1.0781-0.63672-2.2188-1.2461-3.3594-1.8594-0.81641-0.44531-1.6562-0.875-2.5078-1.3086-1.2969-0.66016-2.6523-1.2969-4.0078-1.9219-0.71875-0.33594-1.4648-0.67188-2.207-0.99609-1.5352-0.67188-3.0977-1.332-4.7031-1.9688-0.58984-0.23828-1.1875-0.46875-1.7773-0.69531-1.7891-0.67188-3.5898-1.3438-5.4375-1.9805-0.42187-0.14453-0.83984-0.26562-1.2461-0.42188-1.5586-0.51562-3.168-1.0195-4.7773-1.5234l74.723-28.152v42.84c0 39.719 70.859 61.152 137.52 61.152 66.672 0 137.54-21.445 137.54-61.152l0.003907-39.832 75.047 28.727c-24.77 7.957-44.062 19.789-51.348 35.281-2.0898 4.3789-3.1914 9.0586-3.1914 14.027v74.949c0 39.719 70.848 61.152 137.51 61.152 66.707 0 137.55-21.434 137.55-61.152v-39.852l122.39 46.848-395.06 148.89-157.61 59.387-254.23-97.32-304.12-116.42zm1007 524.15-562.21 211.84v-454.55l562.21-211.82z"/>
 </g>
</svg>
